# xmcd
#
# Track frame offsets:
#	150
#	16326
#	36785
#	51508
#	66715
#	84521
#	99203
#	110455
#	128543
#	144718
#	161190
#	175820
#	190241
#
# Disc length: 2731 seconds
#
# Revision: 1
# Processed by: cddbd v1.5.2PL0 Copyright (c) Steve Scherf et al.
# Submitted via: audiograbber 1.83.01
#
DISCID=b40aa90d
DTITLE=Kenny Neal - Kenny Neal and his Mississippi Saxaphone
DYEAR=2011
DGENRE=Blues
TTITLE0=Blues Stew
TTITLE1=Baby Bee
TTITLE2=Bayou Blood
TTITLE3=Big City Ways
TTITLE4=Bio On The Bayou
TTITLE5=Devil Child
TTITLE6=Early One Morning
TTITLE7=Evalina
TTITLE8=Do I Have To Go That Far
TTITLE9=Going To The Country
TTITLE10=Howling At The Moon
TTITLE11=Hoodoo Moon
TTITLE12=Starlight Diamond
EXTD=
EXTT0=
EXTT1=
EXTT2=
EXTT3=
EXTT4=
EXTT5=
EXTT6=
EXTT7=
EXTT8=
EXTT9=
EXTT10=
EXTT11=
EXTT12=
PLAYORDER=
